<svg xmlns="http://www.w3.org/2000/svg" width="70" height="80" viewBox="0 0 600 550.665"><path d="M158.579 265.876c-1.507-.762-3.519-1.142-6.037-1.142h-18v19.118h17.037c3.456 0 6.19-.71 8.203-2.133 2.013-1.421 3.019-3.985 3.019-7.693 0-3.985-1.407-6.703-4.222-8.15zM202.6 266.523l-9.026 24.718h17.52zM328.36 266.523l-9.025 24.718h17.52zM456.639 281.948c2.104-1.447 3.157-4 3.157-7.655 0-4.114-1.513-6.906-4.538-8.38-1.664-.786-3.945-1.18-6.844-1.18H433.44v19.386h14.974c3.378 0 6.119-.724 8.225-2.171z" fill="none"/><path fill="#e03300" d="M535.152 233.817h.01l-99.742-95.184-71.28 34.008L300 57.021l-64.14 115.62-35.64-47.616-49.896 68.028-28.5-20.4-56.99 61.164h.017"/><path d="M450.91 290.518c5.596 0 9.752-1.62 12.468-4.857 2.715-3.237 4.074-7.039 4.074-11.406 0-5.078-1.523-9.02-4.566-11.825-3.043-2.806-7.04-4.209-11.988-4.209h-25.036v55.947h7.578v-23.65h17.47zm-17.47-25.784h14.974c2.899 0 5.18.393 6.844 1.18 3.025 1.473 4.538 4.265 4.538 8.379 0 3.655-1.053 6.208-3.157 7.655-2.106 1.447-4.847 2.171-8.225 2.171H433.44v-19.385zm-27.002 16.413v33.021h7.235v-55.947h-10.781l-15.974 47.301-16.088-47.3h-10.858v55.946h7.236v-33.02c0-1.32-.037-3.383-.113-6.19-.077-2.804-.115-4.892-.115-6.264v-1.714l16.126 47.188h7.51l15.974-47.188c0 3.022-.026 5.854-.077 8.493-.05 2.642-.075 4.533-.075 5.674zm-67.146 16.264l5.674 16.757h8.303l-20.3-55.947h-8.57l-21.06 55.947h7.77l6.054-16.757h22.129zm-10.931-30.888l8.493 24.718h-17.52l9.027-24.718zm206.79-32.706l-99.731-74.568-71.28 33.912L300 91.437l-64.14 101.724-35.64-47.46-49.896 67.8-28.5-20.328-56.973 40.644H0v9.48h600v-9.48h-64.848zm25.746 74.373c-2.251.812-4.746 1.218-7.485 1.218-6.115 0-10.383-1.854-12.804-5.561-1.271-1.98-1.993-4.557-2.164-7.731h-7.122c-.077 6.043 1.805 10.829 5.645 14.359 3.838 3.554 9.149 5.332 15.934 5.332 5.82 0 10.927-1.334 15.321-4 4.396-2.666 6.593-7.097 6.593-13.292 0-4.976-1.721-8.772-5.165-11.388-1.993-1.497-4.823-2.678-8.488-3.542l-7.602-1.79c-5.117-1.218-8.401-2.233-9.852-3.046-2.215-1.27-3.322-3.276-3.322-6.017 0-2.488.937-4.672 2.81-6.551 1.876-1.879 4.956-2.819 9.24-2.819 5.306 0 9.068 1.46 11.283 4.38 1.193 1.6 1.972 3.899 2.338 6.894h7.121c0-6.22-1.996-10.746-5.986-13.577-3.99-2.832-8.84-4.247-14.546-4.247-6.202 0-10.996 1.612-14.38 4.836-3.386 3.225-5.078 7.351-5.078 12.378 0 4.646 1.721 8.137 5.166 10.473 1.992 1.346 5.387 2.578 10.183 3.695l7.342 1.714c3.984.939 6.912 2.044 8.78 3.313 1.845 1.295 2.769 3.465 2.769 6.512 0 4.063-2.178 6.882-6.531 8.457zm-83.2-49.969v31.42c0 6.881.928 12.175 2.79 15.881 3.387 6.755 9.82 10.132 19.299 10.132 9.477 0 15.923-3.377 19.338-10.132 1.86-3.706 2.79-9 2.79-15.88v-31.42h-7.655v34.58c0 4.037-.627 7.25-1.881 9.636-2.33 4.393-6.732 6.588-13.206 6.588-5.4 0-9.24-2.03-11.517-6.093-1.535-2.691-2.303-6.068-2.303-10.13V258.22h-7.656zm-202.53 5.065c4.438 0 7.885 1.054 10.342 3.162 2.455 2.107 4.095 4.964 4.918 8.568h7.389c-.427-4.747-2.573-8.988-6.437-12.72s-9.298-5.598-16.3-5.598c-8.206 0-14.643 2.871-19.31 8.612-4.317 5.285-6.475 12.056-6.475 20.313 0 10.875 2.874 18.916 8.621 24.124 4.367 3.939 9.764 5.907 16.188 5.907 7.455 0 13.378-2.4 17.77-7.198 3.665-3.986 5.823-8.925 6.476-14.816h-7.389c-.749 3.682-1.883 6.652-3.404 8.913-2.869 4.29-7.047 6.436-12.534 6.436-5.961 0-10.445-2.04-13.45-6.117-3.006-4.08-4.508-9.396-4.508-15.953 0-8.005 1.664-13.945 4.992-17.82 3.33-3.876 7.7-5.813 13.11-5.813zm-61.636 34.125l5.675 16.757h8.303l-20.3-55.947h-8.57l-21.06 55.947h7.769l6.056-16.757h22.127zm-10.93-30.888l8.493 24.718h-17.52l9.027-24.718zM48.2 314.168v-49.282h18.852v-6.665h-45.36v6.665h18.852v49.282H48.2zM0 334.521h73.2v45.684c0 1.633.831 3.156 2.207 4.04l222 142.559c.79.507 1.691.76 2.593.76s1.804-.253 2.593-.76l222-142.56a4.8 4.8 0 0 0 2.207-4.04v-45.683H600v-9.48H0v9.48zm168.418-52.992c1.384-2.132 2.076-4.875 2.076-8.226 0-6.424-2.58-10.829-7.741-13.216-2.718-1.243-6.171-1.866-10.36-1.866h-25.43v55.947h7.578v-23.994h16.763c3.01 0 5.217.344 6.624 1.028 2.467 1.245 3.786 3.695 3.959 7.351l.457 9.332c.101 2.183.228 3.656.38 4.418s.356 1.384.61 1.865h9.293v-1.256c-1.168-.508-1.98-1.651-2.437-3.429-.28-1.04-.457-2.627-.534-4.76l-.266-7.502c-.127-3.251-.743-5.6-1.847-7.047-1.105-1.447-2.75-2.614-4.932-3.504 2.487-1.294 4.423-3.008 5.807-5.14zm-8.636.19c-2.012 1.423-4.747 2.133-8.203 2.133H134.54v-19.118h18c2.52 0 4.531.38 6.038 1.142 2.815 1.447 4.222 4.165 4.222 8.15 0 3.708-1.006 6.272-3.019 7.693zm-44.436-16.642v-6.856h-40.6v55.947h41.171v-6.665H82.135v-18.966h30.697v-6.476H82.135v-16.984h33.21z" fill="#04021d"/><path d="M112.795 361.86h14.64v-3.086h-14.64v-8.103h15.839v-3.27H109.27v26.684h19.635v-3.178h-16.111v-9.047zm35.856-7.138l-3.978-.09-4.523 6.847-4.469-6.847h-4.232l6.503 9.48-6.848 9.973h4.142l4.686-7.302 4.831 7.302h4.178l-6.848-9.972 6.558-9.39zm12.222-.563c-1.494 0-2.793.363-3.897 1.09-.778.485-1.494 1.17-2.15 2.053v-2.58h-3.197v27.119h3.27v-9.935c.717.883 1.368 1.507 1.951 1.87.997.642 2.23.963 3.702.963 1.872 0 3.513-.575 4.924-1.725 2.224-1.816 3.337-4.844 3.337-9.082 0-3.137-.771-5.55-2.313-7.239-1.542-1.69-3.418-2.534-5.627-2.534zm3.058 15.812c-1.015 1.278-2.288 1.916-3.819 1.916-2.26 0-3.816-1.004-4.666-3.014-.45-1.055-.674-2.332-.674-3.833 0-1.865.225-3.404.674-4.614.839-2.264 2.394-3.396 4.666-3.396 2.26 0 3.815 1.07 4.666 3.214.45 1.115.674 2.446.674 3.996 0 2.543-.507 4.453-1.521 5.73zm8.75 4.114h3.27v-26.683h-3.27v26.683zm15.957-20.017c-2.778 0-4.99.968-6.638 2.904-1.647 1.936-2.47 4.537-2.47 7.804 0 3.05.78 5.477 2.344 7.287 1.563 1.808 3.674 2.713 6.33 2.713 3.187 0 5.539-1.022 7.053-3.067 1.515-2.045 2.273-4.634 2.273-7.769 0-3.241-.86-5.697-2.58-7.367-1.719-1.669-3.823-2.505-6.312-2.505zm4.283 15.434c-.797 1.638-2.266 2.458-4.41 2.458-1.951 0-3.376-.69-4.274-2.068-.898-1.379-1.347-3.102-1.347-5.17 0-2.153.449-3.991 1.347-5.516.898-1.523 2.334-2.286 4.31-2.286 2.227 0 3.796.895 4.706 2.686.575 1.136.862 2.612.862 4.426 0 2.007-.398 3.832-1.194 5.47zm17.124-15.306c-1.296 0-2.44.469-3.433 1.408-.993.938-1.616 1.734-1.87 2.388v-3.36h-3.107v19.453h3.27v-11.189c0-1.38.441-2.6 1.326-3.66.883-1.059 2.149-1.59 3.796-1.59.193 0 .372.007.536.019.163.012.342.036.536.073v-3.452c-.352-.036-.6-.06-.745-.072a4.443 4.443 0 0 0-.309-.018zm20.146 6.92c-.217-1.308-.65-2.453-1.3-3.432-.674-1.03-1.655-1.868-2.943-2.516s-2.617-.972-3.989-.972c-2.72 0-4.922.974-6.608 2.924-1.684 1.95-2.527 4.487-2.527 7.611 0 3.173.836 5.64 2.51 7.402 1.672 1.761 3.712 2.643 6.118 2.643.986 0 1.87-.098 2.65-.291 1.455-.339 2.674-.993 3.66-1.962.588-.556 1.122-1.274 1.6-2.153.479-.877.76-1.673.845-2.388h-3.215a5.778 5.778 0 0 1-1.2 2.28c-1.01 1.133-2.361 1.698-4.056 1.698-1.814 0-3.153-.598-4.018-1.793-.865-1.197-1.328-2.785-1.388-4.764h14.15c0-1.962-.097-3.39-.29-4.287zm-13.788 1.689c.06-1.671.594-3.048 1.603-4.132 1.008-1.083 2.257-1.626 3.746-1.626 2.077 0 3.56.788 4.449 2.362.48.847.786 1.98.918 3.396h-10.716zm27.7 2.598h9.118v-3.36h-9.118v3.36zm41.704-1.508c0 1.926-.299 3.458-.897 4.596-1.11 2.095-3.21 3.143-6.298 3.143-2.576 0-4.406-.97-5.492-2.907-.733-1.284-1.1-2.894-1.1-4.832v-16.493h-3.65v14.986c0 3.28.443 5.806 1.33 7.575 1.617 3.22 4.685 4.83 9.205 4.83 4.52 0 7.594-1.61 9.223-4.83.887-1.769 1.33-4.294 1.33-7.575v-14.986h-3.65v16.493zm18.2-9.699c-1.259 0-2.404.247-3.432.744-1.03.497-2.005 1.314-2.925 2.453v-2.76h-3.106v19.452h3.27v-10.19c0-1.27.082-2.25.245-2.934.164-.683.518-1.346 1.063-1.988.678-.8 1.465-1.333 2.36-1.599.497-.157 1.132-.236 1.908-.236 1.526 0 2.58.605 3.16 1.816.351.727.527 1.684.527 2.871v12.26h3.325v-12.478c0-1.962-.268-3.47-.8-4.523-.969-1.926-2.833-2.888-5.594-2.888zm11.226 19.89h3.324v-19.364h-3.324v19.363zm0-22.979h3.324v-3.705h-3.324v3.705zm12.224-1.906h-3.306v5.431h-2.633v2.67h2.633v12.879c0 1.246.273 2.26.818 3.042.545.78 1.58 1.172 3.106 1.172.472 0 .911-.025 1.317-.073.405-.05.795-.128 1.172-.237v-2.597a7.197 7.197 0 0 1-.637.06c-.181.008-.351.013-.508.013-.593 0-1.017-.067-1.272-.2-.46-.23-.69-.685-.69-1.363v-12.696h3.107v-2.67h-3.107v-5.431zm22.635 11.915c-.217-1.308-.65-2.453-1.301-3.432-.674-1.03-1.655-1.868-2.943-2.516-1.287-.648-2.616-.972-3.989-.972-2.72 0-4.921.974-6.607 2.924-1.685 1.95-2.527 4.487-2.527 7.611 0 3.173.836 5.64 2.509 7.402 1.673 1.761 3.712 2.643 6.12 2.643.985 0 1.868-.098 2.649-.291 1.454-.339 2.674-.993 3.66-1.962.588-.556 1.122-1.274 1.6-2.153.478-.877.76-1.673.845-2.388h-3.215a5.777 5.777 0 0 1-1.2 2.28c-1.01 1.133-2.362 1.698-4.056 1.698-1.814 0-3.154-.598-4.019-1.793-.864-1.197-1.327-2.785-1.387-4.764h14.15c0-1.962-.097-3.39-.29-4.287zm-13.788 1.689c.06-1.671.594-3.048 1.603-4.132 1.007-1.083 2.257-1.626 3.746-1.626 2.077 0 3.56.788 4.449 2.362.48.847.786 1.98.918 3.396h-10.716zm27.7 2.598h9.117v-3.36h-9.118v3.36zm45.065 6.449c-.134-.497-.218-1.254-.255-2.271l-.127-3.58c-.061-1.549-.354-2.669-.882-3.36-.526-.69-1.31-1.246-2.351-1.67 1.187-.618 2.11-1.436 2.77-2.453.66-1.017.99-2.325.99-3.923 0-3.064-1.232-5.165-3.693-6.303-1.296-.593-2.942-.89-4.94-.89h-12.129v26.683h3.615v-11.443h7.995c1.434 0 2.488.163 3.158.49 1.176.594 1.807 1.762 1.889 3.506l.218 4.45c.048 1.041.109 1.743.182 2.107.072.363.168.66.29.89h4.432v-.6c-.558-.241-.944-.786-1.162-1.633zm-4.964-13.243c-.96.679-2.264 1.018-3.912 1.018h-8.126v-9.119h8.584c1.201 0 2.161.182 2.88.545 1.342.69 2.014 1.987 2.014 3.887 0 1.769-.48 2.991-1.44 3.67zm26.599 2.507c-.217-1.308-.65-2.453-1.3-3.432-.675-1.03-1.656-1.868-2.943-2.516-1.288-.648-2.617-.972-3.99-.972-2.72 0-4.921.974-6.607 2.924-1.685 1.95-2.527 4.487-2.527 7.611 0 3.173.836 5.64 2.509 7.402 1.673 1.761 3.712 2.643 6.12 2.643.985 0 1.868-.098 2.649-.291 1.454-.339 2.674-.993 3.66-1.962.588-.556 1.122-1.274 1.6-2.153.479-.877.76-1.673.845-2.388h-3.215a5.777 5.777 0 0 1-1.2 2.28c-1.01 1.133-2.362 1.698-4.056 1.698-1.814 0-3.154-.598-4.019-1.793-.864-1.197-1.327-2.785-1.387-4.764h14.15c0-1.962-.097-3.39-.29-4.287zm-13.788 1.689c.06-1.671.594-3.048 1.603-4.132 1.008-1.083 2.257-1.626 3.746-1.626 2.077 0 3.56.788 4.449 2.362.48.847.786 1.98.918 3.396h-10.716zm34.638 9.064c-.448 0-.742-.103-.881-.308-.139-.205-.209-.478-.209-.817v-11.208c0-1.84-.708-3.198-2.122-4.07-1.428-.871-3.284-1.307-5.57-1.307-1.971 0-3.704.47-5.197 1.412-1.495.94-2.271 2.614-2.332 5.019h3.051c.12-1.01.381-1.77.78-2.283.713-.924 1.921-1.387 3.625-1.387 1.474 0 2.608.253 3.399.757.792.505 1.188 1.316 1.188 2.434 0 .547-.073.966-.218 1.258-.254.532-.757.846-1.508.944l-5.213.652c-1.829.23-3.306.84-4.432 1.833-1.126.992-1.69 2.388-1.69 4.19 0 1.645.572 3.015 1.717 4.11 1.144 1.094 2.618 1.641 4.423 1.641 1.501 0 2.876-.32 4.124-.962 1.247-.642 2.203-1.4 2.87-2.271.109.776.296 1.375.562 1.799.509.799 1.327 1.197 2.453 1.197.46 0 .822-.017 1.09-.053a9.097 9.097 0 0 0 1.162-.272v-2.417c-.206.037-.4.064-.581.082a5.166 5.166 0 0 1-.491.027zm-4.36-5.041c0 2.007-.908 3.452-2.724 4.335a7.463 7.463 0 0 1-3.342.797c-.945 0-1.762-.271-2.452-.815-.69-.544-1.036-1.287-1.036-2.229 0-1.244.506-2.15 1.517-2.719.597-.338 1.488-.586 2.672-.743l1.976-.254c.604-.073 1.22-.193 1.849-.364.629-.17 1.142-.382 1.54-.638v2.63zm16.13-9.836c1.526 0 2.635.398 3.325 1.19.69.794 1.132 1.79 1.326 2.99h3.179c-.28-2.605-1.106-4.44-2.48-5.505-1.375-1.065-3.158-1.599-5.35-1.599-2.567 0-4.68.95-6.338 2.852-1.66 1.902-2.49 4.56-2.49 7.974 0 2.786.758 5.107 2.272 6.966 1.512 1.86 3.541 2.788 6.084 2.788 2.264 0 4.124-.596 5.577-1.789s2.361-3.08 2.725-5.657h-3.179c-.303 1.434-.852 2.565-1.644 3.391-.793.827-1.869 1.24-3.225 1.24-1.768 0-3.063-.665-3.887-1.996-.824-1.33-1.235-2.97-1.235-4.916 0-1.935.29-3.562.872-4.88.896-2.032 2.386-3.049 4.468-3.049zm26.139.128c-1.006-1.973-2.918-2.961-5.74-2.961-1.574 0-2.887.345-3.942 1.036-.617.4-1.314 1.09-2.088 2.07v-9.954h-3.27v26.774h3.27v-10.317c0-2.59.55-4.353 1.652-5.285 1.103-.933 2.332-1.4 3.688-1.4 1.635 0 2.749.534 3.342 1.6.363.665.545 1.712.545 3.142v12.26h3.36v-12.478c0-1.914-.272-3.409-.817-4.487z" fill="#fff"/><path d="M60 390.117l240 154.836 240-154.836v-60.216H60v60.216zm0-151.56h480c0-311.676-480-311.676-480 0z" fill="none" stroke="#04021d" stroke-width="9.6"/></svg>